# xmcd
#
# Track frame offsets:
# 150
# 26668
# 62261
# 82945
# 121854
# 154469
# 176941
# 205370
# 232169
# 260067
# 274342
# 299024
# 322478
#
# Disc length: 4664 seconds
#
#
# Revision: 0
# Processed by: cddbd v1.5.1PL2 Copyright (c) Steve Scherf et al.
# Submitted via: FreeRIP 2.945 
#
DISCID=d112360d
DTITLE=Ndee Naldinho - Ndee naldinho
DYEAR=0005
DGENRE=A Cappella
TTITLE0=Essa é a lei
TTITLE1=O povo da periferia
TTITLE2=Lagartixa
TTITLE3=O sequestro
TTITLE4=Aquela mina é firmeza
TTITLE5=Um salve pros manos
TTITLE6=O quinto vigia
TTITLE7=Considerado na favela
TTITLE8=Dia a dia de ladrão
TTITLE9=Joga a pedra
TTITLE10=A elite
TTITLE11=Preto do Gueto
TTITLE12=A perseguição
EXTD=
EXTT0=
EXTT1=
EXTT2=
EXTT3=
EXTT4=
EXTT5=
EXTT6=
EXTT7=
EXTT8=
EXTT9=
EXTT10=
EXTT11=
EXTT12=
PLAYORDER=
